<svg width="400" height="89" viewBox="0 0 400 89" fill="none" xmlns="http://www.w3.org/2000/svg">
<path fill-rule="evenodd" clip-rule="evenodd" d="M52.0666 88.1553C54.2971 88.3179 55.4472 88.3992 55.5169 88.3992C60.1869 88.3992 64.4387 87.3831 68.2723 85.351C72.1756 83.3188 75.3122 80.3925 77.6821 76.572C80.0519 72.6702 81.2369 67.9556 81.2369 62.4281C81.2369 58.6889 80.6444 55.4781 79.4595 52.7957C78.2745 50.0319 76.7062 47.7153 74.7546 45.8457C72.8029 43.8948 70.6422 42.2284 68.2723 40.8465C65.9722 39.4647 63.672 38.2047 61.3718 37.0667C57.1897 35.0345 53.9137 33.1243 51.5439 31.336C49.174 29.5477 47.4663 27.6781 46.4208 25.7272C45.445 23.7763 44.9571 21.541 44.9571 19.0211C44.9571 14.3064 46.3162 10.7705 49.0346 8.41317C51.753 5.97457 55.029 4.75527 58.8626 4.75527C63.2538 4.75527 66.6343 6.34036 69.0042 9.51054C71.374 12.5994 73.3605 17.6798 74.9637 24.7518C75.8698 24.8331 77.0199 24.7518 78.4139 24.5079C78.1351 20.3623 77.926 16.3793 77.7866 12.5588C77.6472 8.73831 77.5078 5.03977 77.3684 1.46316C77.0199 1.54445 76.5668 1.62573 76.0092 1.70702H74.8591C74.5106 1.70702 73.7788 1.66638 72.6635 1.58509C71.618 1.5038 70.0846 1.30059 68.0632 0.975439C66.4601 0.650293 64.8918 0.406434 63.3583 0.24386C61.8946 0.0812872 60.4657 0 59.0717 0C54.6108 0 50.5332 0.975439 46.839 2.92632C43.1448 4.79591 40.1825 7.55966 37.952 11.2176C35.7913 14.8755 34.7109 19.2649 34.7109 24.386C34.7109 24.462 34.7111 24.5378 34.7116 24.6134C28.2396 21.649 21.8512 18.7119 16.7682 15.9352C9.29979 11.8555 4.64994 8.12251 0 4.38932C1.87763 10.2592 3.75523 16.129 6.0483 20.0515C8.34135 23.974 11.0497 25.949 13.9588 27.9713C14.3452 28.2398 14.735 28.5092 15.1207 28.7757C17.6397 30.5163 19.982 32.1348 20.0096 32.602C20.0416 33.1408 16.9957 32.1487 14.7067 31.1567C12.4177 30.1646 10.8857 29.1725 9.35366 28.1804L9.35363 28.1804C14.2508 33.656 19.1479 39.1314 20.0598 41.3063C20.9718 43.4813 17.8986 42.3557 14.8253 41.23L14.8254 41.2302C20.8077 47.2588 26.7901 53.2876 31.9456 55.7856C37.1012 58.2836 41.1745 57.3118 44.5244 56.2917C44.7433 56.2251 44.959 56.1582 45.1728 56.092C48.2311 55.1445 50.8808 54.3236 56.3189 56.0444C60.0248 57.2171 65.0257 59.5702 70.4966 62.3517C71.0351 63.9877 71.3043 65.8421 71.3043 67.915C71.3043 72.6296 69.8755 76.4501 67.0177 79.3764C64.1599 82.2214 60.4657 83.6439 55.9351 83.6439C50.8469 83.6439 46.7345 81.6931 43.5979 77.7913C40.531 73.8895 38.3354 68.362 37.011 61.2088H35.3382C34.7806 61.2088 34.223 61.2495 33.6654 61.3308C34.223 70.9226 34.5366 79.0919 34.6063 85.8387C35.0245 85.8387 36.1746 85.9606 38.0566 86.2045C40.0082 86.367 42.169 86.6922 44.5388 87.1799C47.3966 87.7489 49.9059 88.0741 52.0666 88.1553ZM92.4109 1.34123C90.4593 1.25994 88.7864 1.2193 87.3924 1.2193C87.1833 2.51988 87.1833 3.77983 87.3924 4.99913C90.6684 5.32427 93.0382 5.73071 94.502 6.21843C95.9657 6.62486 96.8718 7.55966 97.2204 9.02282C97.5689 10.486 97.7431 12.9246 97.7431 16.3386V58.2825C97.7431 65.0293 98.9281 70.6381 101.298 75.1088C103.668 79.4983 106.944 82.7498 111.126 84.8632C115.378 86.9767 120.292 88.0334 125.868 88.0334C135.626 88.0334 142.91 85.0258 147.719 79.0106C152.529 72.9141 154.933 64.4603 154.933 53.6492V16.0948C154.933 12.762 155.108 10.4047 155.456 9.02282C155.874 7.64094 156.815 6.74679 158.279 6.34036C159.743 5.93392 162.078 5.52749 165.284 5.12106C165.493 3.82047 165.493 2.56053 165.284 1.34123C163.333 1.34123 161.032 1.38187 158.384 1.46316C155.805 1.54445 153.644 1.58509 151.901 1.58509C150.298 1.58509 148.172 1.54445 145.524 1.46316C142.875 1.38187 140.61 1.34123 138.728 1.34123C138.519 2.64182 138.519 3.90176 138.728 5.12106C141.376 5.4462 143.433 5.77135 144.896 6.0965C146.36 6.34036 147.441 6.82808 148.138 7.55966C148.904 8.29123 149.357 9.46989 149.497 11.0956C149.706 12.6401 149.81 14.8348 149.81 17.6798V51.0886C149.81 61.4933 148.068 69.1749 144.583 74.1334C141.098 79.0919 135.94 81.5711 129.109 81.5711C122.627 81.5711 117.678 79.3764 114.262 74.9869C110.917 70.5162 109.244 63.7287 109.244 54.6246V14.7535C109.244 11.8272 109.418 9.7544 109.767 8.5351C110.115 7.3158 111.021 6.50293 112.485 6.0965C113.949 5.69006 116.284 5.32427 119.49 4.99913C119.699 3.69854 119.699 2.4386 119.49 1.2193C118.096 1.2193 116.388 1.25994 114.367 1.34123C112.346 1.34123 110.324 1.38187 108.303 1.46316H103.389H98.3704C96.4188 1.38187 94.4323 1.34123 92.4109 1.34123ZM238.848 1.34123L216.473 68.1588L194.831 1.34123C193.367 1.42252 191.764 1.46316 190.021 1.46316H185.839C182.772 1.46316 179.984 1.42252 177.475 1.34123C174.966 1.25994 172.526 1.2193 170.156 1.2193C170.087 2.4386 170.087 3.69854 170.156 4.99913C173.572 5.32427 176.011 5.73071 177.475 6.21843C179.008 6.62486 179.949 7.43773 180.298 8.65703C180.646 9.87633 180.751 11.9085 180.612 14.7535L178.625 71.6948C178.555 74.865 178.311 77.1816 177.893 78.6448C177.545 80.108 176.673 81.0834 175.279 81.5711C173.885 82.0588 171.55 82.5466 168.274 83.0343C168.135 84.2536 168.135 85.5135 168.274 86.8141C168.693 86.8141 169.494 86.7735 170.679 86.6922H174.757H178.73C179.984 86.6109 180.821 86.5703 181.239 86.5703C182.006 86.5703 183.225 86.6109 184.898 86.6922H190.021C191.764 86.7735 192.984 86.8141 193.681 86.8141C193.96 85.5948 193.96 84.3349 193.681 83.0343C190.405 82.5466 188.07 82.0588 186.676 81.5711C185.282 81.0834 184.445 80.2705 184.166 79.1325C183.888 77.9132 183.783 75.9623 183.853 73.2799L185.526 10.486L210.305 87.1799C211.071 87.1799 211.977 87.1393 213.023 87.058C214.069 86.9767 214.835 86.8141 215.323 86.5703L241.67 7.92545L242.611 73.2799C242.611 76.1249 242.437 78.1977 242.089 79.4983C241.81 80.7176 240.973 81.5305 239.579 81.9369C238.185 82.2621 235.955 82.6279 232.888 83.0343H232.679C232.609 84.3349 232.609 85.5948 232.679 86.8141C233.237 86.8141 234.247 86.7735 235.711 86.6922H240.52H245.33C246.794 86.6109 247.804 86.5703 248.362 86.5703C248.919 86.5703 249.93 86.6109 251.394 86.6922H256.308H261.222C262.755 86.7735 263.801 86.8141 264.358 86.8141C264.567 85.5135 264.567 84.2536 264.358 83.0343C261.779 82.7904 259.793 82.5466 258.399 82.3027C257.005 81.9776 255.994 81.4898 255.367 80.8395C254.74 80.1892 254.356 79.1325 254.217 77.6694C254.077 76.2062 254.008 74.2147 254.008 71.6948L253.171 14.7535C253.171 11.9085 253.311 9.87633 253.589 8.65703C253.938 7.35644 254.844 6.54357 256.308 6.21843C257.772 5.81199 260.107 5.40556 263.313 4.99913H263.522C263.731 3.69854 263.731 2.4386 263.522 1.2193C262.964 1.2193 261.919 1.25994 260.385 1.34123H255.471C253.729 1.34123 252.091 1.38187 250.557 1.46316H247.525H243.448C241.845 1.46316 240.311 1.42252 238.848 1.34123ZM273.847 1.34123C271.895 1.25994 270.222 1.2193 268.828 1.2193C268.619 2.51988 268.619 3.77983 268.828 4.99913C272.104 5.32427 274.474 5.73071 275.938 6.21843C277.401 6.62486 278.307 7.55966 278.656 9.02282C279.004 10.486 279.179 12.9246 279.179 16.3386V58.2825C279.179 65.0293 280.364 70.6381 282.734 75.1088C285.103 79.4983 288.379 82.7498 292.561 84.8632C296.813 86.9767 301.727 88.0334 307.303 88.0334C317.062 88.0334 324.345 85.0258 329.155 79.0106C333.964 72.9141 336.369 64.4603 336.369 53.6492V16.0948C336.369 12.762 336.543 10.4047 336.892 9.02282C337.31 7.64094 338.251 6.74679 339.715 6.34036C341.179 5.93392 343.514 5.52749 346.72 5.12106C346.929 3.82047 346.929 2.56053 346.72 1.34123C344.768 1.34123 342.468 1.38187 339.819 1.46316C337.24 1.54445 335.08 1.58509 333.337 1.58509C331.734 1.58509 329.608 1.54445 326.959 1.46316C324.311 1.38187 322.045 1.34123 320.163 1.34123C319.954 2.64182 319.954 3.90176 320.163 5.12106C322.812 5.4462 324.868 5.77135 326.332 6.0965C327.796 6.34036 328.876 6.82808 329.573 7.55966C330.34 8.29123 330.793 9.46989 330.932 11.0956C331.141 12.6401 331.246 14.8348 331.246 17.6798V51.0886C331.246 61.4933 329.503 69.1749 326.018 74.1334C322.533 79.0919 317.375 81.5711 310.545 81.5711C304.062 81.5711 299.113 79.3764 295.698 74.9869C292.352 70.5162 290.68 63.7287 290.68 54.6246V14.7535C290.68 11.8272 290.854 9.7544 291.202 8.5351C291.551 7.3158 292.457 6.50293 293.921 6.0965C295.384 5.69006 297.719 5.32427 300.926 4.99913C301.135 3.69854 301.135 2.4386 300.926 1.2193C299.532 1.2193 297.824 1.25994 295.803 1.34123C293.781 1.34123 291.76 1.38187 289.739 1.46316H284.825H279.806C277.854 1.38187 275.868 1.34123 273.847 1.34123ZM370.83 88.1553C373.06 88.3179 374.21 88.3992 374.28 88.3992C378.95 88.3992 383.202 87.3831 387.035 85.351C390.939 83.3188 394.075 80.3925 396.445 76.572C398.815 72.6702 400 67.9556 400 62.4281C400 58.6889 399.407 55.4781 398.223 52.7957C397.038 50.0319 395.469 47.7153 393.518 45.8457C391.566 43.8948 389.405 42.2284 387.035 40.8465C384.735 39.4647 382.435 38.2047 380.135 37.0667C375.953 35.0345 372.677 33.1243 370.307 31.336C367.937 29.5477 366.229 27.6781 365.184 25.7272C364.208 23.7763 363.72 21.541 363.72 19.0211C363.72 14.3064 365.079 10.7705 367.798 8.41317C370.516 5.97457 373.792 4.75527 377.626 4.75527C382.017 4.75527 385.397 6.34036 387.767 9.51054C390.137 12.5994 392.124 17.6798 393.727 24.7518C394.633 24.8331 395.783 24.7518 397.177 24.5079C396.898 20.3623 396.689 16.3793 396.55 12.5588C396.41 8.73831 396.271 5.03977 396.131 1.46316C395.783 1.54445 395.33 1.62573 394.772 1.70702H393.622C393.274 1.70702 392.542 1.66638 391.427 1.58509C390.381 1.5038 388.848 1.30059 386.826 0.975439C385.223 0.650293 383.655 0.406434 382.121 0.24386C380.658 0.0812872 379.229 0 377.835 0C373.374 0 369.296 0.975439 365.602 2.92632C361.908 4.79591 358.946 7.55966 356.715 11.2176C354.554 14.8755 353.474 19.2649 353.474 24.386C353.474 29.1819 354.45 33.0837 356.401 36.0913C358.353 39.0989 360.827 41.5781 363.825 43.529C366.892 45.3986 370.098 47.1869 373.444 48.8939C376.301 50.2758 378.985 51.7796 381.494 53.4053C384.073 54.9498 386.129 56.86 387.663 59.136C389.266 61.412 390.067 64.3384 390.067 67.915C390.067 72.6296 388.638 76.4501 385.781 79.3764C382.923 82.2214 379.229 83.6439 374.698 83.6439C369.61 83.6439 365.497 81.6931 362.361 77.7913C359.294 73.8895 357.098 68.362 355.774 61.2088H354.101C353.544 61.2088 352.986 61.2495 352.428 61.3308C352.986 70.9226 353.3 79.0919 353.369 85.8387C353.788 85.8387 354.938 85.9606 356.82 86.2045C358.771 86.367 360.932 86.6922 363.302 87.1799C366.16 87.7489 368.669 88.0741 370.83 88.1553Z" fill="black"/>
</svg>
